<mxfile host="app.diagrams.net" modified="2021-09-13T02:57:18.247Z" agent="5.0 (Windows NT 10.0; WOW64) AppleWebKit/537.36 (KHTML, like Gecko) Chrome/84.0.4147.89 Safari/537.36 SLBrowser/7.0.0.8031 SLBChan/35" etag="qG0SzhkdR31d4TNm7492" version="14.9.8" type="github">
  <diagram id="H6dp-2xgu3q6Mm5FGOXB" name="第 1 页">
    <mxGraphModel dx="782" dy="439" grid="1" gridSize="10" guides="1" tooltips="1" connect="1" arrows="1" fold="1" page="1" pageScale="1" pageWidth="827" pageHeight="1169" math="0" shadow="0">
      <root>
        <mxCell id="0" />
        <mxCell id="1" parent="0" />
        <mxCell id="faGX5GA8CTV00EPOskFs-2" value="Tiner-android-lib-no-op" style="rounded=1;whiteSpace=wrap;html=1;" vertex="1" parent="1">
          <mxGeometry x="90" y="180" width="120" height="60" as="geometry" />
        </mxCell>
        <mxCell id="faGX5GA8CTV00EPOskFs-3" value="tinker-android-anno-support" style="rounded=1;whiteSpace=wrap;html=1;" vertex="1" parent="1">
          <mxGeometry x="370" y="90" width="120" height="60" as="geometry" />
        </mxCell>
        <mxCell id="faGX5GA8CTV00EPOskFs-4" value="tinker-android-loader-no-op" style="rounded=1;whiteSpace=wrap;html=1;" vertex="1" parent="1">
          <mxGeometry x="370" y="180" width="120" height="60" as="geometry" />
        </mxCell>
        <mxCell id="faGX5GA8CTV00EPOskFs-5" value="tinker-commons" style="rounded=1;whiteSpace=wrap;html=1;" vertex="1" parent="1">
          <mxGeometry x="370" y="280" width="120" height="60" as="geometry" />
        </mxCell>
        <mxCell id="faGX5GA8CTV00EPOskFs-6" value="" style="endArrow=classic;html=1;exitX=0;exitY=0.5;exitDx=0;exitDy=0;entryX=1;entryY=0.25;entryDx=0;entryDy=0;" edge="1" parent="1" source="faGX5GA8CTV00EPOskFs-3" target="faGX5GA8CTV00EPOskFs-2">
          <mxGeometry width="50" height="50" relative="1" as="geometry">
            <mxPoint x="290" y="160" as="sourcePoint" />
            <mxPoint x="340" y="110" as="targetPoint" />
          </mxGeometry>
        </mxCell>
        <mxCell id="faGX5GA8CTV00EPOskFs-7" value="" style="endArrow=classic;html=1;exitX=0;exitY=0.5;exitDx=0;exitDy=0;entryX=1;entryY=0.75;entryDx=0;entryDy=0;" edge="1" parent="1" source="faGX5GA8CTV00EPOskFs-5" target="faGX5GA8CTV00EPOskFs-2">
          <mxGeometry width="50" height="50" relative="1" as="geometry">
            <mxPoint x="380" y="130" as="sourcePoint" />
            <mxPoint x="220" y="205" as="targetPoint" />
          </mxGeometry>
        </mxCell>
        <mxCell id="faGX5GA8CTV00EPOskFs-8" value="" style="endArrow=classic;html=1;exitX=0;exitY=0.5;exitDx=0;exitDy=0;entryX=1;entryY=0.5;entryDx=0;entryDy=0;" edge="1" parent="1" source="faGX5GA8CTV00EPOskFs-4" target="faGX5GA8CTV00EPOskFs-2">
          <mxGeometry width="50" height="50" relative="1" as="geometry">
            <mxPoint x="390" y="140" as="sourcePoint" />
            <mxPoint x="230" y="215" as="targetPoint" />
            <Array as="points">
              <mxPoint x="250" y="210" />
            </Array>
          </mxGeometry>
        </mxCell>
        <mxCell id="faGX5GA8CTV00EPOskFs-9" value="Tiner-android-lib" style="rounded=1;whiteSpace=wrap;html=1;" vertex="1" parent="1">
          <mxGeometry x="90" y="460" width="120" height="60" as="geometry" />
        </mxCell>
        <mxCell id="faGX5GA8CTV00EPOskFs-10" value="tinker-android-anno-support" style="rounded=1;whiteSpace=wrap;html=1;" vertex="1" parent="1">
          <mxGeometry x="370" y="370" width="120" height="60" as="geometry" />
        </mxCell>
        <mxCell id="faGX5GA8CTV00EPOskFs-11" value="tinker-android-loader" style="rounded=1;whiteSpace=wrap;html=1;" vertex="1" parent="1">
          <mxGeometry x="370" y="460" width="120" height="60" as="geometry" />
        </mxCell>
        <mxCell id="faGX5GA8CTV00EPOskFs-12" value="tinker-commons" style="rounded=1;whiteSpace=wrap;html=1;" vertex="1" parent="1">
          <mxGeometry x="370" y="560" width="120" height="60" as="geometry" />
        </mxCell>
        <mxCell id="faGX5GA8CTV00EPOskFs-13" value="" style="endArrow=classic;html=1;exitX=0;exitY=0.5;exitDx=0;exitDy=0;entryX=1;entryY=0.25;entryDx=0;entryDy=0;" edge="1" parent="1" source="faGX5GA8CTV00EPOskFs-10" target="faGX5GA8CTV00EPOskFs-9">
          <mxGeometry width="50" height="50" relative="1" as="geometry">
            <mxPoint x="290" y="440" as="sourcePoint" />
            <mxPoint x="340" y="390" as="targetPoint" />
          </mxGeometry>
        </mxCell>
        <mxCell id="faGX5GA8CTV00EPOskFs-14" value="" style="endArrow=classic;html=1;exitX=0;exitY=0.5;exitDx=0;exitDy=0;entryX=1;entryY=0.75;entryDx=0;entryDy=0;" edge="1" parent="1" source="faGX5GA8CTV00EPOskFs-12" target="faGX5GA8CTV00EPOskFs-9">
          <mxGeometry width="50" height="50" relative="1" as="geometry">
            <mxPoint x="380" y="410" as="sourcePoint" />
            <mxPoint x="220" y="485" as="targetPoint" />
          </mxGeometry>
        </mxCell>
        <mxCell id="faGX5GA8CTV00EPOskFs-15" value="" style="endArrow=classic;html=1;exitX=0;exitY=0.5;exitDx=0;exitDy=0;entryX=1;entryY=0.5;entryDx=0;entryDy=0;" edge="1" parent="1" source="faGX5GA8CTV00EPOskFs-11" target="faGX5GA8CTV00EPOskFs-9">
          <mxGeometry width="50" height="50" relative="1" as="geometry">
            <mxPoint x="390" y="420" as="sourcePoint" />
            <mxPoint x="230" y="495" as="targetPoint" />
            <Array as="points">
              <mxPoint x="250" y="490" />
            </Array>
          </mxGeometry>
        </mxCell>
        <mxCell id="faGX5GA8CTV00EPOskFs-25" value="third-party:aosp-dexutils" style="rounded=1;whiteSpace=wrap;html=1;" vertex="1" parent="1">
          <mxGeometry x="370" y="690" width="120" height="60" as="geometry" />
        </mxCell>
        <mxCell id="faGX5GA8CTV00EPOskFs-26" value="third-party:bsdiff-util" style="rounded=1;whiteSpace=wrap;html=1;" vertex="1" parent="1">
          <mxGeometry x="370" y="790" width="120" height="60" as="geometry" />
        </mxCell>
        <mxCell id="faGX5GA8CTV00EPOskFs-27" value="third-party:tinker-ziputils" style="rounded=1;whiteSpace=wrap;html=1;" vertex="1" parent="1">
          <mxGeometry x="370" y="890" width="120" height="60" as="geometry" />
        </mxCell>
        <mxCell id="faGX5GA8CTV00EPOskFs-29" value="tinker-commons" style="rounded=1;whiteSpace=wrap;html=1;" vertex="1" parent="1">
          <mxGeometry x="100" y="790" width="120" height="60" as="geometry" />
        </mxCell>
        <mxCell id="faGX5GA8CTV00EPOskFs-31" value="" style="endArrow=classic;html=1;exitX=0;exitY=0.5;exitDx=0;exitDy=0;" edge="1" parent="1" source="faGX5GA8CTV00EPOskFs-25">
          <mxGeometry width="50" height="50" relative="1" as="geometry">
            <mxPoint x="210" y="760" as="sourcePoint" />
            <mxPoint x="220" y="810" as="targetPoint" />
          </mxGeometry>
        </mxCell>
        <mxCell id="faGX5GA8CTV00EPOskFs-32" value="" style="endArrow=classic;html=1;exitX=0;exitY=0.5;exitDx=0;exitDy=0;entryX=1;entryY=0.5;entryDx=0;entryDy=0;" edge="1" parent="1" source="faGX5GA8CTV00EPOskFs-26" target="faGX5GA8CTV00EPOskFs-29">
          <mxGeometry width="50" height="50" relative="1" as="geometry">
            <mxPoint x="380" y="730" as="sourcePoint" />
            <mxPoint x="230" y="820" as="targetPoint" />
          </mxGeometry>
        </mxCell>
        <mxCell id="faGX5GA8CTV00EPOskFs-33" value="" style="endArrow=classic;html=1;exitX=0;exitY=0.5;exitDx=0;exitDy=0;entryX=1;entryY=0.75;entryDx=0;entryDy=0;" edge="1" parent="1" source="faGX5GA8CTV00EPOskFs-27" target="faGX5GA8CTV00EPOskFs-29">
          <mxGeometry width="50" height="50" relative="1" as="geometry">
            <mxPoint x="380" y="730" as="sourcePoint" />
            <mxPoint x="230" y="820" as="targetPoint" />
          </mxGeometry>
        </mxCell>
        <mxCell id="faGX5GA8CTV00EPOskFs-34" value="tinker-android-anno-support" style="rounded=1;whiteSpace=wrap;html=1;" vertex="1" parent="1">
          <mxGeometry x="580" y="180" width="120" height="60" as="geometry" />
        </mxCell>
        <mxCell id="faGX5GA8CTV00EPOskFs-35" value="" style="endArrow=classic;html=1;exitX=0;exitY=0.5;exitDx=0;exitDy=0;entryX=1;entryY=0.5;entryDx=0;entryDy=0;" edge="1" parent="1" source="faGX5GA8CTV00EPOskFs-34" target="faGX5GA8CTV00EPOskFs-4">
          <mxGeometry width="50" height="50" relative="1" as="geometry">
            <mxPoint x="380" y="130" as="sourcePoint" />
            <mxPoint x="220" y="205" as="targetPoint" />
          </mxGeometry>
        </mxCell>
        <mxCell id="faGX5GA8CTV00EPOskFs-37" value="tinker-android-anno-support" style="rounded=1;whiteSpace=wrap;html=1;" vertex="1" parent="1">
          <mxGeometry x="580" y="460" width="120" height="60" as="geometry" />
        </mxCell>
        <mxCell id="faGX5GA8CTV00EPOskFs-38" value="" style="endArrow=classic;html=1;exitX=0;exitY=0.5;exitDx=0;exitDy=0;entryX=1;entryY=0.5;entryDx=0;entryDy=0;" edge="1" parent="1" source="faGX5GA8CTV00EPOskFs-37" target="faGX5GA8CTV00EPOskFs-11">
          <mxGeometry width="50" height="50" relative="1" as="geometry">
            <mxPoint x="600" y="430" as="sourcePoint" />
            <mxPoint x="650" y="380" as="targetPoint" />
          </mxGeometry>
        </mxCell>
      </root>
    </mxGraphModel>
  </diagram>
</mxfile>
